<svg width="15" height="19" viewBox="0 0 15 19" fill="none" xmlns="http://www.w3.org/2000/svg">
<path d="M7.096 0C8.97798 0 10.7829 0.747612 12.1136 2.07837C13.4444 3.40913 14.192 5.21402 14.192 7.096C14.192 11.015 8.177 18.292 7.096 18.292C5.385 18.292 0 11.015 0 7.096C0 5.21402 0.747612 3.40913 2.07837 2.07837C3.40913 0.747612 5.21402 0 7.096 0V0Z" fill="#526071"/>
<path d="M7.096 0C8.97798 0 10.7829 0.747612 12.1136 2.07837C13.4444 3.40913 14.192 5.21402 14.192 7.096C14.192 11.015 8.177 18.292 7.096 18.292C5.385 18.292 0 11.015 0 7.096C0 5.21402 0.747612 3.40913 2.07837 2.07837C3.40913 0.747612 5.21402 0 7.096 0V0Z" fill="#CCDCE7"/>
<path d="M7.01999 3.96803C7.40371 3.96089 7.78499 4.0303 8.14158 4.1722C8.49816 4.31411 8.82288 4.52566 9.09677 4.79449C9.37065 5.06333 9.58821 5.38406 9.73672 5.73794C9.88524 6.09182 9.96173 6.47175 9.96173 6.85553C9.96173 7.23931 9.88524 7.61924 9.73672 7.97312C9.58821 8.327 9.37065 8.64773 9.09677 8.91657C8.82288 9.1854 8.49816 9.39695 8.14158 9.53886C7.78499 9.68076 7.40371 9.75017 7.01999 9.74303C6.26349 9.72895 5.54272 9.41854 5.01269 8.87857C4.48267 8.33859 4.18573 7.61217 4.18573 6.85553C4.18573 6.09889 4.48267 5.37247 5.01269 4.83249C5.54272 4.29251 6.26349 3.98211 7.01999 3.96803V3.96803Z" fill="#526071"/>
<path d="M7.01999 3.96803C7.40371 3.96089 7.78499 4.0303 8.14158 4.1722C8.49816 4.31411 8.82288 4.52566 9.09677 4.79449C9.37065 5.06333 9.58821 5.38406 9.73672 5.73794C9.88524 6.09182 9.96173 6.47175 9.96173 6.85553C9.96173 7.23931 9.88524 7.61924 9.73672 7.97312C9.58821 8.327 9.37065 8.64773 9.09677 8.91657C8.82288 9.1854 8.49816 9.39695 8.14158 9.53886C7.78499 9.68076 7.40371 9.75017 7.01999 9.74303C6.26349 9.72895 5.54272 9.41854 5.01269 8.87857C4.48267 8.33859 4.18573 7.61217 4.18573 6.85553C4.18573 6.09889 4.48267 5.37247 5.01269 4.83249C5.54272 4.29251 6.26349 3.98211 7.01999 3.96803V3.96803Z" fill="white"/>
</svg>
