<svg width="24" height="17" viewBox="0 0 24 17" fill="none" xmlns="http://www.w3.org/2000/svg"><path d="M24 13.873C24 13.873 22.88 15.067 21.875 15.752C20.869 16.435 17.822 16.999 17.822 16.999L16.574 15.486C16.574 15.486 18.407 14.593 19.061 14.171C19.714 13.748 20.041 13.008 20.041 13.008L19.904 12.875C16.13 15.178 12.845 15.236 12.001 15.208C11.156 15.236 7.871 15.178 4.097 12.875L3.96 13.008C3.96 13.008 4.287 13.748 4.94 14.171C5.594 14.593 7.428 15.486 7.428 15.486L6.179 16.999C6.179 16.999 3.13 16.435 2.126 15.752C1.122 15.067 0 13.872 0 13.872C0 13.872 0.0900002 7.03 2.874 2.297C3.414 1.487 7.334 0.07 8.837 0V0.28C8.837 0.28 5.043 1.267 3.345 2.927C3.628 2.995 3.706 3.033 3.706 3.033C3.706 3.033 6.826 1.073 11.79 0.967C11.85 0.966 11.91 0.966 11.969 0.964H12.033L12.211 0.967C17.176 1.074 20.295 3.033 20.295 3.033C20.295 3.033 20.373 2.995 20.655 2.929C18.959 1.267 15.166 0.28 15.166 0.28V0C16.668 0.07 20.589 1.486 21.128 2.296C23.91 7.029 24 13.873 24 13.873ZM10.494 9.847C10.494 8.616 9.468 7.617 8.203 7.617C6.936 7.617 5.91 8.616 5.91 9.847C5.91 11.08 6.936 12.079 8.203 12.079C9.468 12.079 10.494 11.079 10.494 9.847V9.847ZM18.124 9.847C18.124 8.616 17.097 7.617 15.832 7.617C14.565 7.617 13.539 8.616 13.539 9.847C13.539 11.08 14.565 12.079 15.832 12.079C17.097 12.079 18.123 11.079 18.123 9.847H18.124Z"/></svg>