<svg width="19" height="19" viewBox="0 0 19 19" fill="none" xmlns="http://www.w3.org/2000/svg"><path d="M9.5 1.71102C6.963 1.71102 6.663 1.72102 5.661 1.76702C4.735 1.80902 4.231 1.96302 3.897 2.09402C3.454 2.26602 3.137 2.47202 2.805 2.80402C2.48982 3.11049 2.24723 3.48361 2.095 3.89602C1.965 4.23102 1.809 4.73502 1.767 5.66002C1.721 6.66202 1.712 6.96302 1.712 9.50002C1.712 12.036 1.722 12.336 1.767 13.338C1.809 14.264 1.964 14.768 2.094 15.102C2.267 15.546 2.472 15.862 2.804 16.194C3.11052 16.5098 3.48404 16.7528 3.897 16.905C4.232 17.035 4.735 17.19 5.661 17.232C6.663 17.278 6.963 17.288 9.5 17.288C12.037 17.288 12.337 17.278 13.339 17.232C14.265 17.19 14.768 17.035 15.103 16.905C15.546 16.733 15.863 16.527 16.195 16.195C16.5105 15.8884 16.7531 15.5149 16.905 15.102C17.035 14.767 17.191 14.264 17.233 13.338C17.279 12.336 17.288 12.036 17.288 9.49902C17.288 6.96302 17.278 6.66202 17.233 5.66002C17.191 4.73502 17.036 4.23102 16.906 3.89602C16.7538 3.48359 16.5112 3.11047 16.196 2.80402C15.8893 2.48864 15.5158 2.24603 15.103 2.09402C14.768 1.96402 14.265 1.80902 13.339 1.76702C12.337 1.72102 12.037 1.71102 9.499 1.71102C9.499 1.71102 12.037 1.71102 9.499 1.71102H9.5ZM9.5 2.34375e-05C12.08 2.34375e-05 12.403 0.0110234 13.417 0.0580234C14.428 0.104023 15.119 0.264023 15.723 0.499023C16.3566 0.737813 16.9306 1.11182 17.405 1.59502C17.8884 2.06961 18.2625 2.64397 18.501 3.27802C18.736 3.88202 18.897 4.57302 18.943 5.58302C18.989 6.59602 19 6.92002 19 9.50002C19 12.08 18.989 12.404 18.943 13.417C18.897 14.428 18.736 15.119 18.501 15.723C18.2623 16.357 17.8883 16.9314 17.405 17.406C16.9306 17.889 16.3566 18.2627 15.723 18.501C15.118 18.736 14.428 18.897 13.417 18.943C12.404 18.989 12.08 19 9.5 19C6.92 19 6.596 18.99 5.583 18.943C4.572 18.897 3.881 18.736 3.277 18.501C2.64302 18.2628 2.06866 17.8891 1.594 17.406C1.11123 16.9309 0.737889 16.3562 0.5 15.722C0.265 15.118 0.104 14.427 0.058 13.416C0.011 12.403 0 12.08 0 9.49902C0 6.91902 0.01 6.59602 0.057 5.58202C0.103 4.57202 0.264 3.88102 0.499 3.27702C0.737224 2.64305 1.11092 2.06869 1.594 1.59402C2.06871 1.11075 2.64303 0.736742 3.277 0.498023C3.881 0.263023 4.572 0.103023 5.583 0.0570234C6.596 0.0100234 6.92 -0.000976562 9.5 -0.000976562V2.34375e-05ZM14.378 9.50002C14.378 10.7939 13.864 12.0347 12.9491 12.9496C12.0342 13.8645 10.7934 14.3785 9.4995 14.3785C8.20564 14.3785 6.96478 13.8645 6.04988 12.9496C5.13498 12.0347 4.621 10.7939 4.621 9.50002C4.621 8.20617 5.13498 6.9653 6.04988 6.0504C6.96478 5.13551 8.20564 4.62152 9.4995 4.62152C10.7934 4.62152 12.0342 5.13551 12.9491 6.0504C13.864 6.9653 14.378 8.20617 14.378 9.50002V9.50002ZM12.667 9.50002C12.6745 9.07946 12.5981 8.66162 12.4423 8.27089C12.2865 7.88017 12.0545 7.52439 11.7597 7.22433C11.4649 6.92426 11.1133 6.68593 10.7254 6.52324C10.3376 6.36054 9.92113 6.27675 9.5005 6.27675C9.07987 6.27675 8.66345 6.36054 8.27556 6.52324C7.88766 6.68593 7.53606 6.92426 7.24128 7.22433C6.94651 7.52439 6.71446 7.88017 6.55868 8.27089C6.40291 8.66162 6.32653 9.07946 6.334 9.50002C6.34875 10.3301 6.68885 11.1212 7.28108 11.703C7.87331 12.2848 8.67031 12.6108 9.5005 12.6108C10.3307 12.6108 11.1277 12.2848 11.7199 11.703C12.3122 11.1212 12.6522 10.3301 12.667 9.50002ZM15.711 4.43002C15.711 4.57973 15.6815 4.72797 15.6242 4.86628C15.5669 5.00459 15.483 5.13027 15.3771 5.23612C15.2712 5.34198 15.1456 5.42596 15.0073 5.48325C14.8689 5.54054 14.7207 5.57002 14.571 5.57002C14.4213 5.57002 14.2731 5.54054 14.1347 5.48325C13.9964 5.42596 13.8708 5.34198 13.7649 5.23612C13.659 5.13027 13.5751 5.00459 13.5178 4.86628C13.4605 4.72797 13.431 4.57973 13.431 4.43002C13.431 4.12768 13.5511 3.83771 13.7649 3.62392C13.9787 3.41013 14.2687 3.29002 14.571 3.29002C14.8733 3.29002 15.1633 3.41013 15.3771 3.62392C15.5909 3.83771 15.711 4.12768 15.711 4.43002V4.43002Z"/></svg>