<svg xmlns="http://www.w3.org/2000/svg" width="18" height="14" viewBox="0 0 18 14"><path d="M18 1.657a7.658 7.658 0 0 1-2.121.556A3.577 3.577 0 0 0 17.503.258c-.714.405-1.504.699-2.345.857A3.767 3.767 0 0 0 12.462 0C10.422 0 8.77 1.582 8.77 3.534c0 .277.033.547.096.805-3.07-.147-5.79-1.554-7.612-3.693-.318.522-.5 1.13-.5 1.777 0 1.226.652 2.308 1.643 2.942a3.8 3.8 0 0 1-1.673-.442v.045c0 1.712 1.273 3.14 2.962 3.465a3.843 3.843 0 0 1-1.668.06c.47 1.405 1.834 2.426 3.45 2.455a7.623 7.623 0 0 1-4.586 1.513c-.298 0-.592-.017-.881-.05A10.793 10.793 0 0 0 5.66 14c6.793 0 10.508-5.386 10.508-10.057 0-.153-.004-.305-.01-.457A7.333 7.333 0 0 0 18 1.656z"/></svg>