<svg width="20" height="13" viewBox="0 0 20 13" fill="none" xmlns="http://www.w3.org/2000/svg"><path d="M9.78496 12.8449H10.98C10.98 12.8449 11.34 12.8029 11.525 12.5959C11.695 12.4059 11.69 12.0489 11.69 12.0489C11.69 12.0489 11.666 10.3769 12.41 10.1299C13.144 9.88689 14.087 11.7459 15.086 12.4609C15.841 13.0019 16.415 12.8839 16.415 12.8839L19.085 12.8439C19.085 12.8439 20.483 12.7549 19.82 11.6099C19.766 11.5159 19.434 10.7629 17.834 9.21389C16.159 7.59389 16.384 7.85489 18.401 5.05189C19.63 3.34389 20.121 2.30189 19.967 1.85589C19.821 1.42989 18.917 1.54189 18.917 1.54189L15.91 1.56189C15.91 1.56189 15.687 1.53089 15.522 1.63389C15.361 1.73389 15.257 1.96989 15.257 1.96989C15.257 1.96989 14.781 3.28989 14.147 4.41489C12.807 6.78489 12.272 6.91089 12.053 6.76389C11.543 6.41989 11.671 5.38489 11.671 4.64989C11.671 2.35189 12.005 1.39389 11.021 1.14589C10.693 1.06389 10.452 1.00989 9.61596 1.00089C8.54296 0.988893 7.63596 1.00389 7.12096 1.26689C6.77896 1.44089 6.51496 1.83089 6.67596 1.85289C6.87496 1.88089 7.32496 1.97989 7.56396 2.31789C7.87196 2.75489 7.86096 3.73789 7.86096 3.73789C7.86096 3.73789 8.03796 6.44189 7.44696 6.77789C7.04196 7.00789 6.48596 6.53789 5.29196 4.38689C4.68096 3.28489 4.21896 2.06689 4.21896 2.06689C4.21896 2.06689 4.12896 1.83989 3.96996 1.71689C3.77796 1.56989 3.50896 1.52389 3.50896 1.52389L0.651964 1.54289C0.651964 1.54289 0.221964 1.55389 0.0649638 1.74989C-0.0750362 1.92289 0.0539638 2.27989 0.0539638 2.27989C0.0539638 2.27989 2.29096 7.73789 4.82396 10.4879C7.14696 13.0099 9.78396 12.8449 9.78396 12.8449H9.78496Z"/></svg>